<svg xmlns="http://www.w3.org/2000/svg" width="156" height="28" fill="none"><path fill="#1F88D9" fill-rule="evenodd" d="M24.194 21.557c0-.016-1.088-.662-2.422-1.433-1.33-.77-2.45-1.394-2.488-1.378-.039.011-1.46.81-3.156 1.772-2.696 1.531-3.106 1.75-3.308 1.75-.203 0-.607-.213-3.276-1.734-1.151-.654-2.176-1.24-2.72-1.55l-.408-.232c-.06-.039-.673.29-2.515 1.35-1.335.771-2.434 1.422-2.44 1.444-.016.033 8.57 5.01 10.506 6.092.803.454.885.46 1.465.137.98-.542 10.762-6.19 10.762-6.218ZM11.972 6.097l.016-3.046L12 0l-.202.131c-.082.047-1.39.842-3.215 1.95l-.004.003-.025.015-.028.017-2.35 1.428C1.347 6.48.751 6.858.641 7.044l-.126.213v6.436c0 3.544.011 6.442.028 6.442.016 0 1.12-.634 2.46-1.405l2.434-1.406v-3.582c0-3.554 0-3.582.12-3.822a.805.805 0 0 1 .257-.323c.047-.023.585-.33 1.372-.777l.002-.001 1.776-1.01 3.008-1.712Zm13.026.946c-.11-.185-.744-.585-5.725-3.614L13.667.027l-.016 3.008c-.006 1.657.005 3.03.027 3.052.071.065 5.671 3.259 5.95 3.39.164.077.306.202.4.34l.147.223.027 3.653.028 3.653 2.378 1.373c1.307.755 2.412 1.383 2.45 1.4.05.022.066-1.285.066-6.415V7.257l-.126-.213ZM15.204 8.86c1.296.744 2.357 1.373 2.357 1.405.011.055-4.517 2.696-4.697 2.746-.055.016-1.034-.514-2.434-1.324l-.012-.007c-1.28-.74-2.35-1.36-2.372-1.387-.038-.033 4.703-2.8 4.78-2.784.01 0 1.082.607 2.378 1.351Zm3.33 8.394.017-2.8.01-2.805-.371.213c-.208.115-1.318.75-2.461 1.411l-2.089 1.203v2.773c0 1.531.01 2.778.022 2.778.01 0 1.11-.624 2.444-1.39l2.428-1.383ZM9.55 13.07 12 14.475v2.773c0 1.531-.01 2.778-.027 2.778-.044 0-4.752-2.69-4.829-2.756-.049-.05-.065-.662-.054-2.838l.016-2.773 2.444 1.41Z" clip-rule="evenodd"/><path fill="#fff" d="M44.429 20.695c-4.421 0-6.631-2.383-6.631-7.148 0-2.26.556-4.007 1.67-5.244 1.113-1.244 2.688-1.866 4.726-1.866.918 0 1.732.15 2.442.45.71.293 1.246.713 1.61 1.26l-1.444 1.894a2.856 2.856 0 0 0-1.123-.84 3.533 3.533 0 0 0-1.465-.303c-1.12 0-2.018.398-2.696 1.192-.67.788-1.005 1.907-1.005 3.36 0 3.19 1.416 4.784 4.248 4.784.944 0 1.875-.195 2.793-.586l.449 2.383a9.73 9.73 0 0 1-3.574.664Zm10.273 0c-1.49 0-2.646-.468-3.467-1.406-.82-.937-1.23-2.26-1.23-3.965 0-1.712.41-3.034 1.23-3.965.82-.937 1.976-1.406 3.467-1.406 1.49 0 2.647.469 3.467 1.406.82.931 1.23 2.253 1.23 3.965 0 1.706-.41 3.028-1.23 3.965-.82.938-1.976 1.406-3.467 1.406Zm0-2.51c.638 0 1.13-.247 1.475-.742.345-.5.517-1.207.517-2.119 0-.918-.172-1.624-.517-2.119-.345-.495-.837-.742-1.475-.742-.631 0-1.123.247-1.475.742-.345.495-.517 1.201-.517 2.12 0 .91.172 1.617.517 2.118.352.495.844.742 1.475.742Zm10.693 2.51c-1.282 0-2.281-.462-2.998-1.386-.71-.925-1.064-2.25-1.064-3.975 0-1.712.355-3.037 1.064-3.975.717-.937 1.722-1.406 3.018-1.406.755 0 1.328.173 1.719.518.397.338.654.856.771 1.552h.86l-.606 3.311c0-1.003-.17-1.735-.508-2.197-.332-.463-.836-.694-1.513-.694-.671 0-1.189.254-1.553.762-.365.501-.547 1.211-.547 2.129 0 .95.176 1.667.527 2.148.358.482.883.723 1.573.723.755 0 1.279-.228 1.572-.683.3-.456.45-1.185.45-2.188l.702 3.291h-.918c-.104.69-.374 1.208-.81 1.553-.436.345-1.016.517-1.739.517Zm3.145-.097-.38-2.051V5.852h2.645V20.5l-2.265.098Zm10.42.097c-1.79 0-3.174-.462-4.15-1.386-.977-.931-1.465-2.266-1.465-4.004 0-1.693.413-3.008 1.24-3.946.833-.937 2.005-1.406 3.516-1.406 1.477 0 2.62.433 3.427 1.299.807.866 1.211 2.126 1.211 3.78 0 .468-.02.914-.059 1.337h-7.597v-1.836h5.058c0-.696-.179-1.23-.537-1.601-.351-.372-.846-.557-1.484-.557-.69 0-1.227.247-1.611.742-.378.488-.567 1.185-.567 2.09 0 .977.28 1.719.84 2.227.567.507 1.37.761 2.412.761.469 0 .931-.023 1.387-.068.456-.052.921-.12 1.396-.205l.254 2.5c-.664.117-1.27.192-1.816.224-.547.033-1.032.05-1.455.05Zm12.344 0c-4.421 0-6.631-2.383-6.631-7.148 0-2.26.556-4.007 1.67-5.244 1.113-1.244 2.688-1.866 4.726-1.866.918 0 1.732.15 2.442.45.71.293 1.246.713 1.61 1.26l-1.444 1.894a2.856 2.856 0 0 0-1.123-.84 3.533 3.533 0 0 0-1.465-.303c-1.12 0-2.019.398-2.696 1.192-.67.788-1.005 1.907-1.005 3.36 0 3.19 1.416 4.784 4.248 4.784.944 0 1.875-.195 2.793-.586l.449 2.383a9.73 9.73 0 0 1-3.574.664Zm10.273 0c-1.491 0-2.647-.468-3.467-1.406-.82-.937-1.23-2.26-1.23-3.965 0-1.712.41-3.034 1.23-3.965.82-.937 1.976-1.406 3.467-1.406s2.647.469 3.467 1.406c.82.931 1.23 2.253 1.23 3.965 0 1.706-.41 3.028-1.23 3.965-.82.938-1.976 1.406-3.467 1.406Zm0-2.51c.638 0 1.13-.247 1.475-.742.345-.5.517-1.207.517-2.119 0-.918-.172-1.624-.517-2.119-.345-.495-.837-.742-1.475-.742-.631 0-1.123.247-1.475.742-.345.495-.517 1.201-.517 2.12 0 .91.172 1.617.517 2.118.352.495.844.742 1.475.742Zm13.262 2.51c-1.302 0-2.243-.358-2.823-1.074-.572-.716-.859-1.862-.859-3.437V5.852h2.637v10.234c0 .43.045.781.137 1.055.091.273.266.475.527.605.26.13.648.195 1.162.195.573 0 1.296-.123 2.168-.37l.303 2.714c-.554.143-1.088.248-1.602.313s-1.064.097-1.65.097Zm-6.612-12.412V5.852h3.106v2.431h-3.106Zm18.33 12.412c-1.302 0-2.242-.358-2.822-1.074-.573-.716-.859-1.862-.859-3.437V5.852h2.637v10.234c0 .43.045.781.136 1.055.091.273.267.475.528.605.26.13.647.195 1.162.195.573 0 1.295-.123 2.168-.37l.302 2.714c-.553.143-1.087.248-1.601.313a13.17 13.17 0 0 1-1.651.097Zm-6.611-12.412V5.852h3.106v2.431h-3.106Zm18.692 12.315-.225-3.067-.039-1.347v-2.022c0-.553-.238-.957-.713-1.21-.469-.261-1.169-.405-2.1-.43l-2.646-.069.195-2.402 2.256.03c1.875.025 3.268.396 4.18 1.112.911.71 1.367 1.748 1.367 3.116v3.828l1.436.215V20.5l-3.711.098Zm-3.506.097c-1.101 0-1.957-.27-2.569-.81-.612-.54-.918-1.309-.918-2.305 0-1.159.401-2.047 1.202-2.666.8-.618 1.936-.928 3.408-.928.566 0 1.054.03 1.465.088.416.059.836.15 1.259.274l-.429 2.06a6.009 6.009 0 0 0-1.123-.166c-.332-.02-.681-.03-1.045-.03-1.367 0-2.051.392-2.051 1.173 0 .351.124.621.371.81.247.183.609.274 1.084.274.573 0 1.051-.108 1.436-.323.384-.214.67-.488.859-.82.195-.332.293-.674.293-1.025v-.645l.371 2.656h-.83l.342-.312c-.02.599-.157 1.1-.41 1.504a2.357 2.357 0 0 1-1.075.898c-.455.196-1.002.293-1.64.293Zm11.826 0c-.495 0-.983-.02-1.465-.058a30.297 30.297 0 0 1-1.475-.137l.967-2.627c.345.163.726.26 1.143.293.416.026.83.04 1.24.04 1.087 0 1.927-.31 2.52-.929.599-.625.898-1.504.898-2.636 0-.704-.166-1.244-.498-1.621-.326-.385-.791-.577-1.397-.577-1.484 0-2.226.746-2.226 2.237l-.606-2.657h.879c.176-1.38.996-2.07 2.461-2.07 1.302 0 2.308.407 3.018 1.22.716.815 1.074 1.97 1.074 3.468 0 1.92-.57 3.411-1.709 4.472-1.133 1.055-2.741 1.582-4.824 1.582Zm-2.94-.195V5.852h2.647v14.472l-2.647.176Z"/></svg>